<svg width="424" height="457" viewBox="0 0 424 457" fill="none" xmlns="http://www.w3.org/2000/svg">
<path d="M212.002 310.564C191.035 310.564 170.685 306.459 151.53 298.359C133.028 290.535 116.417 279.342 102.151 265.083C87.8848 250.824 76.6862 234.22 68.8587 215.727C60.7553 196.577 56.6484 176.241 56.6484 155.284C56.6484 134.327 60.7553 113.987 68.8587 94.841C76.6862 76.3481 87.8848 59.7445 102.151 45.4852C116.417 31.226 133.028 20.0328 151.53 12.2091C170.685 4.10493 191.031 0 212.002 0C232.974 0 253.306 4.10493 272.456 12.1999C290.953 20.0144 307.56 31.203 321.826 45.4531C325.298 48.919 325.298 54.5409 321.826 58.0115C318.358 61.4821 312.734 61.4821 309.262 58.0115C283.277 32.0534 248.734 17.7574 211.998 17.7574C136.133 17.7574 74.4097 79.4509 74.4097 155.28C74.4097 231.108 136.133 292.802 211.998 292.802C241.003 292.802 268.74 283.889 292.209 267.028C294.393 265.46 297.166 264.964 299.755 265.676C312.325 269.142 322.194 272.194 329.401 274.424C331.41 275.044 333.388 275.656 335.204 276.207C334.703 273.863 334.115 271.243 333.517 268.563C331.769 260.739 329.378 250.029 326.614 235.985C326.172 233.738 326.614 231.402 327.855 229.472C342.066 207.347 349.581 181.688 349.581 155.27C349.581 128.853 342.305 104.021 328.545 82.1538C325.933 78.0029 327.179 72.519 331.337 69.908C335.49 67.297 340.976 68.5473 343.588 72.6982C359.133 97.4014 367.351 125.952 367.351 155.27C367.351 184.589 359.542 211.714 344.734 235.995C347.166 248.148 349.282 257.613 350.859 264.688C352.377 271.486 353.476 276.405 354.024 279.954C354.529 283.236 355.472 289.345 351.002 293.514C350.744 293.753 350.478 293.974 350.197 294.181C345.86 297.362 340.549 296.052 337.375 295.27C334.151 294.475 329.957 293.179 324.149 291.381C317.843 289.432 309.464 286.84 299.047 283.902C273.307 301.347 243.308 310.545 212.002 310.545V310.564ZM286.138 229.628C289.615 226.167 289.624 220.545 286.161 217.07C282.698 213.594 277.073 213.585 273.596 217.047C257.127 233.453 235.255 242.485 212.002 242.485C163.892 242.485 124.75 203.362 124.75 155.275C124.75 107.188 163.892 68.0647 212.002 68.0647C234.951 68.0647 256.622 76.8997 273.022 92.9379C276.526 96.3671 282.155 96.3073 285.586 92.8C289.017 89.2926 288.957 83.6708 285.448 80.2416C265.709 60.935 239.628 50.3027 212.002 50.3027C184.376 50.3027 157.578 61.22 137.742 81.046C117.907 100.872 106.984 127.23 106.984 155.27C106.984 183.311 117.907 209.669 137.742 229.495C157.578 249.321 183.948 260.238 212.002 260.238C240.056 260.238 266.316 249.362 286.138 229.619V229.628ZM308.006 197.892C313.989 184.446 317.02 170.109 317.02 155.28C317.02 139.471 313.589 124.27 306.82 110.102C304.704 105.676 299.401 103.8 294.977 105.915C290.548 108.029 288.672 113.329 290.787 117.756C296.403 129.515 299.254 142.142 299.254 155.284C299.254 167.608 296.739 179.518 291.772 190.679C289.776 195.161 291.795 200.406 296.279 202.401C297.451 202.921 298.679 203.169 299.884 203.169C303.288 203.169 306.534 201.201 308.006 197.896V197.892ZM251.429 194.384C254.888 190.905 254.865 185.283 251.383 181.826C247.902 178.369 242.277 178.392 238.819 181.872C231.672 189.071 222.148 193.033 212.002 193.033C191.173 193.033 174.226 176.094 174.226 155.275C174.226 134.456 191.173 117.517 212.002 117.517C221.872 117.517 231.212 121.3 238.295 128.168C241.817 131.583 247.442 131.496 250.859 127.975C254.276 124.453 254.189 118.832 250.666 115.416C240.249 105.317 226.517 99.7595 212.002 99.7595C181.373 99.7595 156.456 124.665 156.456 155.28C156.456 185.894 181.373 210.795 212.002 210.795C226.921 210.795 240.921 204.966 251.429 194.384Z" fill="white"/>
<path d="M390.5 419.975C372.031 419.975 357 404.957 357 386.491C357 368.026 372.025 353.008 390.5 353.008C408.974 353.008 423.999 368.026 423.999 386.491C423.999 404.957 408.974 419.975 390.5 419.975ZM390.5 365.448C378.89 365.448 369.441 374.887 369.441 386.497C369.441 398.107 378.884 407.546 390.5 407.546C402.115 407.546 411.558 398.107 411.558 386.497C411.558 374.887 402.115 365.448 390.5 365.448Z" fill="white"/>
<path d="M51.6745 396.31C48.0327 402.211 41.5013 406.151 34.0708 406.151C22.6705 406.151 13.3965 396.881 13.3965 385.486C13.3965 374.092 22.6705 364.822 34.0708 364.822C41.5748 364.822 48.1572 368.841 51.7819 374.838L61.5706 365.421C55.3671 356.948 45.3523 351.438 34.0708 351.438C15.2852 351.438 0 366.715 0 385.486C0 404.257 15.2852 419.541 34.0708 419.541C45.2279 419.541 55.1466 414.154 61.367 405.846L51.6745 396.316V396.31Z" fill="white"/>
<path d="M100.37 416.949H70.6367V353.859H84.0275V403.565H100.37V416.949Z" fill="white"/>
<path d="M153.451 416.609H166.955L143.267 354.005L129.791 353.938L105.051 416.609H118.498L123.972 404.321H148.243L153.451 416.609ZM129.678 391.513L136.413 376.394L142.82 391.513H129.678Z" fill="white"/>
<path d="M196.688 380.521C196.688 380.521 188.664 373.795 186.854 372.049C185.045 370.302 184.784 367.001 186.402 365.645C188.019 364.288 191.514 364.542 194.104 366.227C196.694 367.911 199.408 371.466 199.408 371.466L208.422 363.101C208.422 363.101 200.607 351.446 187.889 352.515C176.658 353.458 171.778 363.316 172.423 369.46C173.395 378.684 177.744 379.99 184.615 386.886C184.615 386.886 193.968 394.618 195.133 396.172C196.298 397.726 198.515 402.599 194.573 404.956C187.001 409.483 181.674 400.83 179.995 397.596L169.641 403.933C169.641 403.933 172.423 410.11 175.821 413.31C178.592 415.921 184.36 418.453 190.089 418.453C196.106 418.453 199.911 416.729 202.399 414.937C206.007 412.343 208.269 409.059 209.502 401.186C210.475 394.979 206.233 389.452 203.972 387.196C201.772 385.003 196.688 380.521 196.688 380.521Z" fill="white"/>
<path d="M242.688 380.521C242.688 380.521 234.664 373.795 232.854 372.049C231.045 370.302 230.784 367.001 232.402 365.645C234.019 364.288 237.514 364.542 240.104 366.227C242.694 367.911 245.408 371.466 245.408 371.466L254.422 363.101C254.422 363.101 246.607 351.446 233.889 352.515C222.658 353.458 217.778 363.316 218.423 369.46C219.395 378.684 223.744 379.99 230.615 386.886C230.615 386.886 239.968 394.618 241.133 396.172C242.298 397.726 244.515 402.599 240.573 404.956C233.001 409.483 227.674 400.83 225.995 397.596L215.641 403.933C215.641 403.933 218.423 410.11 221.821 413.31C224.592 415.921 230.36 418.453 236.089 418.453C242.106 418.453 245.911 416.729 248.399 414.937C252.007 412.343 254.269 409.059 255.502 401.186C256.475 394.979 252.234 389.452 249.972 387.196C247.71 384.941 242.688 380.521 242.688 380.521Z" fill="white"/>
<path d="M351.788 386.491C351.788 368.031 336.763 353.008 318.289 353.008C299.814 353.008 284.789 368.026 284.789 386.491C284.789 404.957 299.814 419.975 318.289 419.975C326.228 419.975 333.529 417.194 339.274 412.565V419.534H351.715V388.566C351.754 387.882 351.783 387.192 351.783 386.497L351.788 386.491ZM318.289 407.54C306.679 407.54 297.23 398.101 297.23 386.491C297.23 374.882 306.674 365.443 318.289 365.443C329.904 365.443 339.348 374.882 339.348 386.491H339.28V388.131C338.437 398.971 329.35 407.535 318.294 407.535L318.289 407.54ZM318.289 456.997C299.859 456.997 284.863 442.007 284.863 423.587H297.303C297.303 435.151 306.719 444.562 318.289 444.562C329.859 444.562 339.274 435.151 339.274 423.587H351.715C351.715 442.007 336.718 456.997 318.289 456.997Z" fill="white"/>
</svg>
