<?xml version="1.0" standalone="no"?>
<!DOCTYPE svg PUBLIC "-//W3C//DTD SVG 20010904//EN"
 "http://www.w3.org/TR/2001/REC-SVG-20010904/DTD/svg10.dtd">
<svg version="1.0" xmlns="http://www.w3.org/2000/svg"
 width="100.000000pt" height="100.000000pt" viewBox="0 0 100.000000 100.000000"
 preserveAspectRatio="xMidYMid meet">

<g transform="translate(0.000000,100.000000) scale(0.100000,-0.100000)"
fill="#000000" stroke="none">
<path d="M820 930 l-27 -29 -265 -3 -265 -3 -38 -29 c-21 -16 -43 -42 -49 -58
-6 -15 -14 -28 -19 -28 -4 0 -19 -11 -32 -25 -37 -36 -33 -78 10 -121 19 -19
35 -40 35 -46 0 -17 48 -76 73 -90 15 -9 94 -15 254 -18 l232 -5 30 -29 c17
-17 31 -33 31 -37 0 -5 -11 -19 -25 -33 -35 -35 -33 -80 4 -115 32 -30 29 -51
-14 -91 l-27 -25 -259 -3 -260 -3 -29 31 c-36 38 -80 41 -115 5 -33 -32 -33
-78 0 -110 34 -35 79 -33 115 5 l28 30 251 0 c193 0 259 3 285 14 33 14 86 72
86 94 0 6 16 27 35 46 43 43 47 85 10 121 -13 14 -28 25 -32 25 -5 0 -14 14
-21 30 -8 17 -30 43 -50 58 l-35 27 -233 5 c-231 5 -233 5 -259 30 -43 40 -46
61 -14 91 37 35 39 80 4 115 -14 14 -25 28 -25 33 0 4 14 20 31 37 l30 29 260
3 260 3 29 -31 c36 -38 80 -41 115 -5 50 49 15 135 -56 135 -21 0 -39 -9 -59
-30z"/>
</g>
</svg>
