<?xml version="1.0" standalone="no"?>
<!DOCTYPE svg PUBLIC "-//W3C//DTD SVG 20010904//EN"
 "http://www.w3.org/TR/2001/REC-SVG-20010904/DTD/svg10.dtd">
<svg version="1.0" xmlns="http://www.w3.org/2000/svg"
 width="80.000000pt" height="80.000000pt" viewBox="0 0 80.000000 80.000000"
 preserveAspectRatio="xMidYMid meet">

<g transform="translate(0.000000,80.000000) scale(0.100000,-0.100000)"
fill="#000000" stroke="none">
<path d="M125 765 c-77 -28 -117 -108 -95 -194 22 -87 129 -266 154 -258 6 2
35 39 64 82 60 91 96 192 87 245 -19 102 -115 160 -210 125z m123 -25 c41 -25
72 -76 72 -118 0 -18 -9 -58 -20 -90 -21 -60 -104 -192 -120 -192 -16 0 -99
132 -120 192 -11 32 -20 72 -20 90 0 69 71 138 140 138 19 0 50 -9 68 -20z"/>
<path d="M125 675 c-33 -32 -33 -78 0 -110 49 -50 135 -15 135 55 0 41 -39 80
-80 80 -19 0 -40 -9 -55 -25z m97 -12 c38 -34 11 -103 -40 -103 -54 0 -81 62
-45 102 20 22 61 23 85 1z"/>
<path d="M582 490 c-43 -10 -100 -65 -112 -108 -12 -46 2 -117 39 -189 29 -59
101 -163 112 -163 3 0 24 26 46 58 84 119 119 217 103 289 -9 36 -61 100 -89
107 -43 11 -69 13 -99 6z m112 -29 c71 -47 86 -132 41 -231 -26 -55 -105 -180
-115 -180 -10 0 -89 125 -115 180 -45 99 -30 184 41 231 38 25 110 25 148 0z"/>
<path d="M569 391 c-35 -36 -37 -61 -6 -97 17 -19 33 -27 56 -27 70 0 101 84
47 130 -36 31 -61 29 -97 -6z m95 -7 c20 -20 20 -68 0 -88 -20 -20 -68 -20
-88 0 -20 20 -20 68 0 88 8 9 28 16 44 16 16 0 36 -7 44 -16z"/>
</g>
</svg>
