<svg width="383" height="414" viewBox="0 0 383 414" fill="none" xmlns="http://www.w3.org/2000/svg">
<path d="M191.508 280.937C172.573 280.937 154.196 277.225 136.898 269.903C120.19 262.829 105.189 252.709 92.3059 239.818C79.4229 226.926 69.31 211.914 62.2414 195.195C54.9236 177.881 51.2148 159.495 51.2148 140.548C51.2148 121.601 54.9236 103.211 62.2414 85.9019C69.31 69.1825 79.4229 54.1712 92.3059 41.2794C105.189 28.3876 120.19 18.2679 136.898 11.1945C154.196 3.86752 172.569 0.15625 191.508 0.15625C210.446 0.15625 228.807 3.86752 246.1 11.1861C262.804 18.2513 277.801 28.3669 290.684 41.2503C293.82 44.3839 293.82 49.4666 290.684 52.6044C287.553 55.7421 282.474 55.7421 279.338 52.6044C255.873 29.1357 224.679 16.2107 191.503 16.2107C122.993 16.2107 67.2542 71.9877 67.2542 140.544C67.2542 209.101 122.993 264.878 191.503 264.878C217.697 264.878 242.745 256.82 263.938 241.576C265.911 240.158 268.415 239.71 270.753 240.354C282.104 243.487 291.016 246.247 297.524 248.262C299.339 248.824 301.125 249.376 302.766 249.875C302.313 247.755 301.781 245.387 301.241 242.964C299.663 235.89 297.504 226.207 295.008 213.51C294.609 211.478 295.008 209.367 296.129 207.621C308.962 187.619 315.748 164.42 315.748 140.536C315.748 116.652 309.178 94.2013 296.752 74.4314C294.393 70.6786 295.518 65.7206 299.273 63.36C303.023 60.9994 307.978 62.1298 310.337 65.8826C324.374 88.2167 331.796 114.029 331.796 140.536C331.796 167.043 324.744 191.567 311.371 213.519C313.568 224.507 315.478 233.064 316.903 239.46C318.273 245.607 319.266 250.054 319.76 253.262C320.217 256.229 321.069 261.753 317.032 265.522C316.799 265.738 316.558 265.938 316.305 266.125C312.389 269.001 307.592 267.816 304.726 267.11C301.815 266.391 298.027 265.219 292.782 263.594C287.088 261.832 279.521 259.488 270.114 256.832C246.869 272.604 219.778 280.92 191.508 280.92V280.937ZM258.456 207.763C261.596 204.633 261.604 199.551 258.477 196.409C255.349 193.267 250.27 193.258 247.13 196.388C232.258 211.22 212.506 219.387 191.508 219.387C148.062 219.387 112.714 184.016 112.714 140.54C112.714 97.0648 148.062 61.6934 191.508 61.6934C212.232 61.6934 231.801 69.6812 246.611 84.1813C249.776 87.2816 254.859 87.2276 257.958 84.0566C261.056 80.8856 261.002 75.8029 257.833 72.7026C240.008 55.2476 216.455 45.6348 191.508 45.6348C166.56 45.6348 142.359 55.5052 124.447 73.4298C106.535 91.3545 96.6708 115.185 96.6708 140.536C96.6708 165.887 106.535 189.718 124.447 207.642C142.359 225.567 166.173 235.437 191.508 235.437C216.842 235.437 240.556 225.604 258.456 207.754V207.763ZM278.204 179.07C283.607 166.914 286.344 153.951 286.344 140.544C286.344 126.252 283.246 112.508 277.133 99.6996C275.222 95.6974 270.434 94.0018 266.438 95.9136C262.439 97.8253 260.744 102.617 262.655 106.619C267.726 117.25 270.301 128.667 270.301 140.548C270.301 151.691 268.029 162.459 263.544 172.549C261.741 176.601 263.564 181.343 267.614 183.147C268.673 183.617 269.782 183.841 270.87 183.841C273.943 183.841 276.875 182.062 278.204 179.074V179.07ZM227.112 175.899C230.235 172.753 230.215 167.67 227.071 164.545C223.927 161.42 218.848 161.44 215.724 164.587C209.27 171.095 200.669 174.677 191.508 174.677C172.698 174.677 157.394 159.362 157.394 140.54C157.394 121.718 172.698 106.403 191.508 106.403C200.42 106.403 208.855 109.824 215.251 116.033C218.432 119.12 223.512 119.041 226.597 115.858C229.683 112.675 229.604 107.592 226.423 104.504C217.016 95.3733 204.615 90.3487 191.508 90.3487C163.848 90.3487 141.346 112.866 141.346 140.544C141.346 168.223 163.848 190.736 191.508 190.736C204.98 190.736 217.622 185.466 227.112 175.899V175.899Z" fill="white"/>
<path d="M352.701 379.858C336.023 379.858 322.449 366.28 322.449 349.585C322.449 332.89 336.018 319.312 352.701 319.312C369.385 319.312 382.953 332.89 382.953 349.585C382.953 366.28 369.385 379.858 352.701 379.858ZM352.701 330.56C342.217 330.56 333.684 339.094 333.684 349.59C333.684 360.086 342.212 368.62 352.701 368.62C363.19 368.62 371.718 360.086 371.718 349.59C371.718 339.094 363.19 330.56 352.701 330.56Z" fill="white"/>
<path d="M46.7234 358.46C43.4347 363.795 37.5365 367.357 30.8263 367.357C20.5313 367.357 12.1563 358.976 12.1563 348.674C12.1563 338.372 20.5313 329.991 30.8263 329.991C37.6029 329.991 43.547 333.625 46.8204 339.047L55.6601 330.533C50.0581 322.873 41.0141 317.891 30.8263 317.891C13.8619 317.891 0.0585938 331.703 0.0585938 348.674C0.0585938 365.645 13.8619 379.463 30.8263 379.463C40.9018 379.463 49.8589 374.593 55.4762 367.081L46.7234 358.465V358.46Z" fill="white"/>
<path d="M90.6985 377.118H63.8477V320.078H75.9403V365.017H90.6985V377.118Z" fill="white"/>
<path d="M138.634 376.81H150.829L129.437 320.21L117.267 320.148L94.9258 376.81H107.069L112.013 365.7H133.931L138.634 376.81V376.81ZM117.165 354.121L123.247 340.451L129.033 354.121H117.165Z" fill="white"/>
<path d="M177.679 344.18C177.679 344.18 170.433 338.099 168.799 336.52C167.164 334.941 166.93 331.957 168.39 330.73C169.851 329.504 173.007 329.734 175.345 331.257C177.684 332.779 180.135 335.994 180.135 335.994L188.275 328.431C188.275 328.431 181.218 317.894 169.733 318.859C159.591 319.713 155.184 328.625 155.766 334.18C156.645 342.519 160.572 343.7 166.776 349.934C166.776 349.934 175.223 356.925 176.275 358.33C177.327 359.735 179.329 364.14 175.769 366.271C168.931 370.365 164.121 362.541 162.604 359.618L153.254 365.346C153.254 365.346 155.766 370.932 158.835 373.824C161.338 376.185 166.547 378.474 171.72 378.474C177.153 378.474 180.59 376.916 182.837 375.296C186.095 372.95 188.138 369.981 189.251 362.863C190.129 357.252 186.299 352.254 184.257 350.215C182.27 348.233 177.679 344.18 177.679 344.18Z" fill="white"/>
<path d="M219.218 344.18C219.218 344.18 211.972 338.099 210.338 336.52C208.704 334.941 208.469 331.957 209.929 330.73C211.39 329.504 214.546 329.734 216.884 331.257C219.223 332.779 221.675 335.994 221.675 335.994L229.815 328.431C229.815 328.431 222.757 317.894 211.272 318.859C201.13 319.713 196.723 328.625 197.305 334.18C198.184 342.519 202.111 343.7 208.315 349.934C208.315 349.934 216.762 356.925 217.814 358.33C218.866 359.735 220.868 364.14 217.308 366.271C210.47 370.365 205.66 362.541 204.143 359.618L194.793 365.346C194.793 365.346 197.305 370.932 200.375 373.824C202.877 376.185 208.086 378.474 213.259 378.474C218.692 378.474 222.129 376.916 224.376 375.296C227.634 372.95 229.677 369.981 230.79 362.863C231.668 357.252 227.838 352.254 225.796 350.215C223.753 348.176 219.218 344.18 219.218 344.18Z" fill="white"/>
<path d="M317.742 349.585C317.742 332.895 304.174 319.312 287.49 319.312C270.807 319.312 257.238 332.89 257.238 349.585C257.238 366.28 270.807 379.858 287.49 379.858C294.66 379.858 301.253 377.343 306.441 373.158V379.459H317.676V351.46C317.712 350.842 317.737 350.219 317.737 349.59L317.742 349.585ZM287.49 368.615C277.006 368.615 268.473 360.081 268.473 349.585C268.473 339.089 277.001 330.555 287.49 330.555C297.979 330.555 306.508 339.089 306.508 349.585H306.446V351.067C305.685 360.868 297.479 368.61 287.495 368.61L287.49 368.615ZM287.49 413.329C270.848 413.329 257.305 399.777 257.305 383.123H268.539C268.539 393.578 277.042 402.087 287.49 402.087C297.938 402.087 306.441 393.578 306.441 383.123H317.676C317.676 399.777 304.133 413.329 287.49 413.329Z" fill="white"/>
</svg>
